<svg version="1.2" xmlns="http://www.w3.org/2000/svg" viewBox="0 0 500 100" width="500" height="100">
	<title>01da13ff-svg</title>
	<style>
		.s0 { paint-order:stroke fill markers;stroke: #000000;stroke-width: 4;stroke-linejoin: round;;fill: #ffffff } 
	</style>
	<path id="Bur's Mods" class="s0" aria-label="Bur's Mods"  d="m18.3 91v-83h21.6q10.2 0 15.4 1.6 5.3 1.6 8.5 6.5 3.2 4.8 3.2 15.5 0 7.3-2.3 10.2-2.2 2.9-9 4.4 7.5 1.7 10.2 5.6 2.7 3.9 2.7 12v7.7q0 8.4-2 12.5-1.9 4-6.1 5.5-4.2 1.5-17.2 1.5zm21.6-68.8v18.5q1.4-0.1 2.1-0.1 3.2 0 4.1-1.5 0.8-1.6 0.8-9 0-3.9-0.7-5.4-0.7-1.6-1.9-2-1.1-0.4-4.4-0.5zm0 31.4v23.2q4.5-0.2 5.8-1.4 1.2-1.3 1.2-6.3v-7.8q0-5.3-1.1-6.4-1.1-1.2-5.9-1.3zm62.5-30.6h20.7v68h-21.1l0.4-5.6q-2.2 3.4-5.4 5.1-3.1 1.7-7.2 1.7-4.7 0-7.7-1.6-3.1-1.7-4.6-4.4-1.4-2.7-1.8-5.6-0.4-3-0.4-11.7v-45.9h20.8v46.3q0 7.9 0.4 9.4 0.5 1.5 2.7 1.5 2.3 0 2.7-1.6 0.5-1.5 0.5-9.8zm28.1 0h20.7l-0.8 8.9q4.5-9.6 13.1-10.2v24q-5.7 0-8.4 1.5-2.7 1.5-3.3 4.3-0.6 2.7-0.6 12.6v26.9h-20.7zm49.1 11.7h-10.6l-2.8-14v-12.7h15.7v12.7zm50.3 6.1v3.9h-18.4v-3.7q0-4.7-0.6-5.9-0.5-1.3-2.6-1.3-1.8 0-2.6 1.2-0.9 1.1-0.9 3.4 0 3.1 0.4 4.6 0.5 1.5 2.6 3.2 2.2 1.7 9 5.1 9 4.4 11.8 8.3 2.8 3.9 2.8 11.3 0 8.3-2.1 12.6-2.2 4.2-7.2 6.5-5.1 2.2-12.2 2.2-7.9 0-13.5-2.4-5.6-2.5-7.7-6.7-2.1-4.2-2.1-12.7v-3.3h18.3v4.3q0 5.5 0.7 7.2 0.7 1.6 2.8 1.6 2.2 0 3.1-1.1 0.8-1.1 0.8-4.6 0-4.9-1.1-6.1-1.2-1.3-12-7.3-9.2-5.2-11.2-9.3-2-4.2-2-10 0-8.1 2.2-11.9 2.1-3.9 7.3-6 5.1-2.1 12-2.1 6.7 0 11.4 1.7 4.8 1.7 7.3 4.5 2.6 2.8 3.1 5.2 0.6 2.4 0.6 7.6zm64.7-32.8h28.1v83h-18.9v-56l-7.5 56h-13.4l-7.9-54.7v54.7h-18.9v-83h27.9q1.3 7.5 2.7 17.6l2.9 21.2zm83.1 38.8v16.7q0 9.2-0.9 13.5-1 4.2-4 8-3 3.7-7.8 5.5-4.7 1.7-10.8 1.7-6.9 0-11.7-1.5-4.8-1.5-7.4-4.6-2.6-3-3.8-7.3-1.1-4.4-1.1-13.1v-17.4q0-9.5 2.1-14.8 2-5.3 7.3-8.6 5.4-3.2 13.7-3.2 7 0 11.9 2.1 5 2.1 7.8 5.4 2.7 3.3 3.7 6.9 1 3.5 1 10.7zm-20.7 26.3v-31.4q0-5.2-0.6-6.6-0.6-1.3-2.4-1.3-1.8 0-2.5 1.3-0.6 1.4-0.6 6.6v30.7q0 4.8 0.6 6.3 0.7 1.5 2.4 1.5 1.9 0 2.5-1.4 0.6-1.3 0.6-5.7zm53.9-65.1h20.7v83h-20.7v-5q-3 3.1-6.3 4.7-3.2 1.5-6.8 1.5-4.8 0-8.4-2.5-3.5-2.6-4.5-5.9-1-3.3-1-10.9v-31.8q0-7.9 1-11.1 1-3.3 4.6-5.8 3.6-2.5 8.5-2.5 3.9 0 7.1 1.4 3.2 1.4 5.8 4.1zm0 63.6v-31.5q0-3.7-0.7-5-0.6-1.3-2.5-1.3-1.8 0-2.5 1.2-0.6 1.1-0.6 5.1v33.4q0 4.1 0.6 5.4 0.6 1.3 2.4 1.3 2 0 2.6-1.4 0.7-1.5 0.7-7.2zm70.4-30.8v4h-18.3v-3.7q0-4.8-0.6-6-0.5-1.3-2.6-1.3-1.8 0-2.7 1.2-0.8 1.1-0.8 3.4 0 3.2 0.4 4.7 0.4 1.4 2.6 3.1 2.2 1.8 9 5.1 9 4.4 11.8 8.3 2.8 3.9 2.8 11.3 0 8.4-2.1 12.6-2.2 4.2-7.3 6.5-5 2.3-12.1 2.3-7.9 0-13.5-2.5-5.6-2.4-7.7-6.7-2.1-4.2-2.1-12.7v-3.2h18.3v4.3q0 5.4 0.7 7.1 0.7 1.6 2.8 1.6 2.2 0 3-1.1 0.9-1.1 0.9-4.6 0-4.9-1.1-6.1-1.2-1.2-12.1-7.3-9.1-5.1-11.1-9.3-2-4.2-2-9.9 0-8.2 2.2-12 2.1-3.9 7.2-6 5.2-2.1 12-2.1 6.8 0 11.5 1.7 4.8 1.7 7.3 4.5 2.6 2.9 3.1 5.3 0.5 2.4 0.5 7.5z"/>
</svg>